<svg width="124" height="70" fill="none" xmlns="http://www.w3.org/2000/svg"><path d="M83.709 54.864c.343.02.718.041.95-.12l-.002.01c.254-.175.214-.492.175-.805a2.344 2.344 0 01-.028-.38 81.74 81.74 0 00.053-2.758l.002-.255.004-.434c.01-.563-.183-.767-.734-.66a4.36 4.36 0 01-.87.076l-2.232-.003h-.007a1114.827 1114.827 0 00-2.605-.004h-.002c-.245-.001-.488-.003-.731.001-.204.003-.28-.097-.372-.27-.14-.269-.088-.523-.036-.778.027-.133.054-.265.054-.4a474.67 474.67 0 00-.007-.924c-.009-1.077-.018-2.154-.002-3.229.01-.595.002-1.19-.005-1.786-.011-.823-.022-1.645.014-2.468.006-.133.031-.267.057-.402.058-.312.117-.627-.06-.936l.003-.422c.002-.317.003-.633.018-.95.014-.365-.15-.533-.507-.533-.478.003-.959.003-1.44.003l-.008-.006c-.035-.097-.077-.168-.147-.02l-.209.007-.213.007v-.012c-.08-.115-.2-.123-.321-.123-.678.002-1.356.002-2.034.002a.326.326 0 01-.123-.018c-.105-.03-.21-.058-.202.166l.01.17.002.04.012.209-.017.006c-.148.06-.296.12-.296.324 0 .28-.005.563-.011.846a.276.276 0 01-.037.027.19.19 0 00-.07.064c-.13.263-.111.463.092.737.09.122.006.23-.091.355-.103.131-.22.281-.163.485.171.608.142 1.25.036 1.875-.071.41-.115.844-.033 1.224.126.568.124 1.137.121 1.704-.001.298-.002.596.015.893-.373.116-.243.214-.113.312.062.047.124.093.13.142-.07.501-.111 1.017-.12 1.512-.007.407.016.816.038 1.225.025.43.049.861.038 1.293-.004.143-.012.287-.021.431-.03.491-.06.985.095 1.47-.19.646-.148 1.293-.106 1.948.026.405.052.813.023 1.225l1.2.001h.008c.78.001 1.54.003 2.3-.001 1.442-.01 2.887-.027 4.329-.044.456-.006.913-.02 1.37-.035.877-.028 1.755-.055 2.633-.024.062.002.127.006.193.01zM63.552 18.665c.008.667.016 1.334-.033 2.003h.003c-.07.93-.043 1.869-.016 2.807.013.456.026.912.028 1.367a744.17 744.17 0 010 4.458c0 .37-.004.743-.008 1.115v.003a65.85 65.85 0 00-.004 1.732c.015.835.08.876.876.873h4.89a9.381 9.381 0 00-.029-.705 6.075 6.075 0 01-.02-.772c.047-.778.064-1.565-.012-2.347.153-.123.148-.288.143-.453l-.002-.086-.001-.622c-.002-.62-.005-1.242.013-1.863a2.8 2.8 0 00-.005-.243c-.013-.25-.026-.505.158-.724l.445.781v.001l.001.001c.347.607.695 1.213 1.017 1.832.259.504.58.787 1.182.772a20.17 20.17 0 011.597.044h.001c.17.01.342.019.513.027.265.012.474-.041.586-.319.086-.215.195-.42.303-.624.108-.203.215-.406.302-.62.175-.432.44-.816.707-1.204a9.76 9.76 0 00.522-.812v1.74c-.135.259-.128.536-.121.812.002.103.005.206 0 .308-.009.191.124.23.289.2v.009l-.003.042-.001.028a2.025 2.025 0 00-.002.086c-.427.094-.342.436-.239.666.099.224.206.138.318.048.065-.053.131-.106.198-.1l.003.095.001.05.004.129a12.45 12.45 0 01.004.138c-.085.394-.114.796-.143 1.198-.032.436-.064.872-.167 1.299-.117.586.11.891.684.917.05.002.098-.002.145-.005l.07-.004c.234.286.543.324.882.271.204.05.404.027.607-.006a.885.885 0 00.566-.009c.102.02.17-.032.24-.084a.792.792 0 01.076-.054l1.45.053c.113.105.244.097.375.088a.966.966 0 01.18 0c.324.039.504-.064.48-.439a3.743 3.743 0 01.02-.549c.021-.252.043-.504-.005-.757.081-.462.007-.913-.067-1.363a9.747 9.747 0 01-.08-.553c-.11-.473-.096-.954-.081-1.434.005-.187.011-.373.01-.559a7.42 7.42 0 00-.026-.485c-.033-.436-.067-.874.105-1.302.056-.135.003-.288-.17-.344l-.002-.06-.003-.054-.001-.021v-.036l.002-.008c.111-.272.224-.547.165-.841-.08-.412-.049-.821-.016-1.232.028-.365.057-.73.007-1.1-.04-.301-.015-.607.01-.914.038-.454.076-.912-.098-1.362-.019-.05-.006-.113.006-.173l.003-.014.004-.02.002-.012c.124-.75.094-1.504.065-2.258-.024-.607-.048-1.215.008-1.822.01-.103-.044-.185-.123-.25a.862.862 0 01.071-.142c.07-.12.141-.242.029-.365-.104-.11-.205-.04-.305.031a.666.666 0 01-.117.072 9.024 9.024 0 01-.306-.053 4.07 4.07 0 00-.699-.089c-.855-.01-1.71-.006-2.565-.003-.427.002-.855.003-1.282.003a.47.47 0 00-.463.283c-.23.45-.488.885-.746 1.319-.363.612-.726 1.225-1.011 1.88-.088.033-.124.094-.115.183l-.006.012c-.118.053-.174.141-.162.27a1.592 1.592 0 00-.33.479 20.16 20.16 0 01-1.244 2.199l-.53-.92-.001-.003c-.427-.74-.842-1.461-1.25-2.184a92.626 92.626 0 01-.487-.88c-.426-.779-.852-1.557-1.338-2.302-.133-.203-.274-.277-.536-.268l-.271.01c-.858.034-1.72.067-2.574.01a14.046 14.046 0 00-1.493.007c-.207.008-.414.016-.621.02-.28.006-.386.095-.38.384l.002.148c.009.483.017.974-.02 1.45-.056.691-.047 1.382-.038 2.074zM41.68 20.928v.005-.009c-.018 2.96-.033 5.917-.035 8.877 0 .881.017 1.763.055 2.641.024.575.048.599.646.605.9.008 1.8.003 2.698-.001h.001l1.195-.005c.11 0 .229.012.348.023.276.028.553.055.729-.065.224-.155.166-.42.107-.689a1.582 1.582 0 01-.054-.407c.03-.58.03-1.16.031-1.74l.001-.436c.006-1.41.009-2.815.009-4.221.04-.055.04-.122.04-.19.002-.093.003-.187.107-.247l.082.13c.053.08.105.162.151.245.135.242.272.483.408.724.334.59.667 1.18.98 1.779.24.456.55.701 1.091.695a24.6 24.6 0 012.102.098c.34.026.534-.098.69-.401.14-.27.274-.54.41-.812.354-.712.708-1.424 1.135-2.098.024-.038.025-.09.026-.142 0-.025 0-.05.004-.073.228.114.21.307.192.493-.005.049-.01.097-.01.143 0 .54-.01 1.082-.02 1.623v.003l-.004.224-.005.311c.103 1.395.115 2.79.103 4.184-.003.174 0 .345.003.516.003.106.053.191.162.209.087.012.176.01.265.007.212-.007.422-.014.59.182.383-.076.77-.087 1.158-.098.337-.009.675-.018 1.012-.07l.088-.014c.483-.074 1.023-.158 1.501.031.35.139.657.13.99.03.182-.24.165-.505.148-.77a2.26 2.26 0 01-.003-.368c.002-.152.01-.305.018-.457.021-.393.042-.786-.033-1.18a.174.174 0 00-.006-.138c.018-.088-.023-.136-.103-.162l.005-.03c.051-.347.103-.692-.14-1.002-.03-.118-.017-.24-.005-.358.01-.1.02-.2.005-.293-.037-.236-.008-.476.022-.717.051-.422.103-.845-.2-1.247-.126-.168-.067-.477.05-.702.069-.125.091-.254.114-.387l.025-.137c.067-.308.043-.617.02-.923-.021-.275-.042-.548.004-.814.13-.753.088-1.5.046-2.245-.018-.319-.036-.637-.04-.956a1.528 1.528 0 00-.036-.265c-.028-.148-.058-.3-.017-.446.147-.537.11-1.076.073-1.614v-.002l-.008-.13a1.642 1.642 0 01.015-.294c.022-.2.044-.398-.077-.545-.169-.204-.067-.352.031-.494.08-.115.157-.227.09-.364v-.177l-.008-.27-.007-.27c-.03-.47-.275-.678-.737-.625a.788.788 0 00-.083.018l-.053.012c-.95-.143-1.903-.11-2.856-.077-.544.019-1.09.038-1.634.024-.26-.006-.392.153-.5.36-.184.344-.372.69-.564 1.028-.455.81-.913 1.62-1.37 2.428l-.003.004-.002.003-.535.947-.469.822-.002.004-.561.984a56.515 56.515 0 01-2.14-3.665c-.472-.884-.944-1.768-1.49-2.612-.117-.182-.232-.28-.462-.28-.712.007-1.423.008-2.135.008-.854.001-1.707.002-2.561.013-.696.009-.731.035-.746.767-.038 1.843-.05 3.69-.062 5.533v.001z" fill="#00C1C8"/><path fill-rule="evenodd" clip-rule="evenodd" d="M42.417 36.564l-.605.017h-.002c-.246-.053-.496-.036-.745-.02-.26.018-.517.035-.768-.027-.386-.094-.749-.05-1.12.024-.038-.062-.088-.103-.168-.092-.242-.07-.49-.047-.734-.017l-.075-.004c-.804-.037-1.607-.074-2.413-.023-.1-.003-.2-.003-.301-.003-.038-.002-.075-.006-.113-.01a1.441 1.441 0 00-.294-.007c-.118.014-.139.094-.047.182.02.128-.057.198-.133.27a.408.408 0 00-.127.164l-.15 1.304-.002.011-.151 1.312c.013.051.033.104.054.157.074.191.148.384-.13.541-.011.006.008.065.026.122l.02.067c-.08.018-.103.077-.097.153a.338.338 0 00-.018.3l.003.219.003.218c.065.484.13.964.198 1.448.002.01.017.019.033.028.008.005.017.01.023.016-.34 1.359-.322 2.063.08 3.184.014.044.032.115.008.141-.215.25-.164.516-.113.78.026.133.051.266.043.397-.051.748-.044 1.494-.037 2.242.002.295.005.59.004.886-.001.533-.024 1.065-.046 1.598-.032.749-.064 1.498-.037 2.249.021.584.027.63.549.554a.744.744 0 00.183-.065c.03-.013.058-.027.088-.038l.02.005.035.01h.001c.038.01.075.021.112.029.662.181 1.333.132 2.004.084.193-.014.386-.028.579-.037.023 0 .045-.027.068-.055a.387.387 0 01.035-.04l.22.02c.786.072 1.583.143 2.362.146 1.706.006 3.418.006 5.126.006h.004c.657 0 1.318.009 1.978.065.62.056.743-.089.743-.667 0-.717-.003-1.434-.006-2.152-.003-.717-.006-1.434-.006-2.152 0-.333-.127-.439-.486-.445-2.139-.034-4.277.004-6.416.042l-.828.014c-.757.012-.804-.035-.775-.828a2.318 2.318 0 00-.007-.276l-.002-.042-.003-.048c.095-.203.204-.345.48-.336a58.93 58.93 0 001.88.011h.002l.722-.002.286.008c.904.028 1.808.056 2.71-.008.068-.363.043-.712.018-1.056a5.812 5.812 0 01-.022-.657c.027-.609.023-1.22.018-1.83-.002-.316-.005-.634-.003-.95 0-.248-.03-.4-.35-.413-1.253-.046-2.504-.025-3.756-.004-.427.007-.855.014-1.283.019h-.053c-.487.007-.5.007-.528-.478a4.06 4.06 0 01.006-.734c.03-.25.153-.43.442-.25.125.078.25.068.377.059a1.72 1.72 0 01.124-.006c.472 0 .946-.003 1.418-.005h.002l.706-.004.953-.008c.846-.007 1.691-.015 2.538.002.27.006.54.002.81-.001.17-.003.338-.005.507-.005.254 0 .342-.109.342-.354a605.93 605.93 0 010-4.631c0-.253-.094-.354-.348-.336-.615.042-1.226.005-1.838-.032a30.538 30.538 0 00-1.039-.052c-.34-.014-.681-.029-1.011.099a42.071 42.071 0 01-.876-.009h-.011l-.006-.01c-.027-.05-.054-.1-.115-.02l-.75.036zm-8.075 4.121zM20.5 20.778c-.01.333-.02.66-.323.907h-.003c-.103.44-.11.89-.115 1.339-.007.493-.014.986-.148 1.467-.001.01.006.02.014.032s.016.023.016.033c-.01.62.146 1.212.3 1.801.03.11.058.219.086.328.46 1.807 1.427 3.31 2.845 4.516.13.11.287.191.444.272.17.087.338.173.473.297.634.58 1.406.89 2.199 1.109 1.102.303 2.229.489 3.393.489 1.486-.003 2.936-.206 4.287-.793 1.8-.784 3.228-2.022 4.236-3.765.802-1.38 1.097-2.856 1.197-4.404.062-.97.024-1.922-.262-2.874-.061-.203-.111-.41-.162-.617-.097-.403-.196-.808-.375-1.188-.822-1.727-1.952-3.184-3.673-4.106-.85-.496-1.737-.902-2.689-1.162h-.009a.86.86 0 00-.112-.041c-.383-.142-.788-.191-1.191-.24a20.98 20.98 0 01-.298-.037c-.303-.162-.604-.222-.896.026.01.227-.156.277-.327.322-.333-.012-.666-.021-1.002-.03-.112-.118-.334-.186-.392-.103-.24.336-.48.223-.75.096l-.029-.014c-.109-.05-.239-.011-.3.127a.945.945 0 01-.28.075c-.149.024-.3.048-.434.179-.23.22-.545.374-.908.315-.11-.017-.184.046-.26.11a.471.471 0 01-.17.108c-.273-.063-.432.11-.588.281l-.008.008c-.31.032-.45.248-.59.465-.055.085-.11.171-.176.246a21.3 21.3 0 00-.283.242c-.156.133-.311.267-.47.397-.14.118-.816.973-.869 1.12-.256.05-.38.222-.43.463l-.25.444c-.2.352-.398.704-.587 1.063-.115.217-.122.459-.13.697zm7.02 6.535c.16.009.29.05.301.238.09.168.26.182.43.196.197.017.394.033.466.282.278-.039.515.07.75.179.088.04.175.08.264.113a.511.511 0 01.132-.095c.089-.05.177-.1.193-.226l-.033.014-.022.002h-.01l-.024.003c-.13.012-.275.025-.3-.134-.021-.139.144-.157.265-.166l.099-.009c.205-.02.408-.04.611.024 1.147.044 1.872-.675 2.42-1.51.956-1.456.88-3.021.1-4.533-.282-.555-.671-1.067-1.255-1.395-1.368-.77-2.739-.89-4.172-.153-.686.354-1.146.89-1.538 1.524-.448.722-.602 1.554-.617 2.35-.011.663.242 1.377.537 1.993.277.577.628 1.2 1.4 1.303h.003z" fill="#00C1C8"/><path d="M.808 27.834c.625 1.64 1.71 2.887 3.066 3.904l-.012-.006c1.813 1.359 3.936 1.757 6.155 1.745h.106c.478-.003.958-.005 1.43-.112l.066-.013c.123-.023.24-.045.285-.193a.4.4 0 01.173-.01c.107.01.214.02.284-.114.057-.007.117-.004.177-.002.155.007.311.014.43-.14l.158-.06.11-.041.27-.102c.088-.05.182-.09.277-.13.172-.072.344-.145.483-.28l.434-.248v-.001c.378-.215.755-.43 1.125-.656.062-.038.1-.115.138-.193.018-.037.036-.074.057-.108.073-.011.127-.047.153-.123h.009c.298-.015.436-.23.563-.454l.012-.012c.12-.041.194-.121.21-.248.438-.45.783-.973 1.114-1.506.24-.195.318-.47.394-.745.021-.074.042-.147.065-.22.033-.1-.061-.17-.17-.067a6.177 6.177 0 01-.242-.13c-.004-.026-.006-.054-.009-.081-.017-.185-.034-.37-.322-.35a6.498 6.498 0 01-1.474-.58c-.224-.127-.412-.2-.666-.083-.253.118-.43.039-.563-.238-.127-.269-.404-.319-.687-.277a.539.539 0 00-.348-.166c-.23-.203-.457-.197-.684.006-.147-.02-.23.033-.35.148-.106.1-.177.223-.249.346-.094.163-.188.325-.359.432-.302.191-.593.4-.883.61-.117.084-.234.168-.352.25-.128.05-.259.095-.39.14-.325.11-.65.222-.943.415-.196.093-.388.05-.58.008a1.725 1.725 0 00-.28-.046c-1.141-.056-2.094-.578-2.615-1.569-.746-1.415-.908-2.921-.366-4.495.383-1.112 1.112-1.784 2.196-2.108 1.595-.478 3.453-.05 4.39 1.438.165.263.322.351.658.25.705-.209 1.417-.397 2.13-.586.49-.13.983-.26 1.472-.398l.237-.064c.366-.099.732-.197 1.051-.37.05-.128-.033-.216-.108-.297-.08-.086-.152-.164-.057-.274.15-.174.084-.285.009-.414a5.278 5.278 0 01-.02-.034 16.346 16.346 0 01-.215-.386c-.175-.322-.35-.643-.573-.938a7.411 7.411 0 00-2.175-1.928c-.926-.551-1.858-1.085-2.928-1.273-.116-.02-.232-.042-.349-.064-.506-.092-1.015-.185-1.535-.205-2.22-.085-4.319.269-6.188 1.578C1.851 17.471.54 19.503.127 22.102c-.313 1.976-.033 3.862.68 5.731zM9.964 54.7c.089.328.24.419.56.41l-.008-.015c1-.023 2.002-.023 3-.017.78.005 1.557.017 2.336.059.374.02.554-.145.598-.48.07-.547.212-1.089.35-1.614l.022-.082c.182-.696.352-1.395.521-2.093.205-.84.409-1.68.634-2.515.25-.168.218-.386.112-.619.29-.277.384-.616.319-1.008.109-.053.144-.154.174-.26l.07-.006a.152.152 0 00.06.098l.064.297.065.298a.352.352 0 00.133.307.56.56 0 00.03.12c.046.14.15.192.23.06.085-.142.176-.254.323-.325.008.09.009.182.01.275.002.206.005.412.076.59.269.665.366 1.36.464 2.056l.052.36c.041.292.103.549.345.767.22.2.265.495.23.81-.056.505-.036.508.436.585l.018.002c.037.006.078.001.119-.004.082-.01.163-.021.214.057-.195.162-.426.157-.65.152h-.048l-.066-.001c.013.21.096.38.178.545.07.145.14.286.161.451.107.861.398 1.056 1.215.89.053.198.2.175.348.151.286-.043.568-.008.854.028l.086.01.253.032h.002c.729.093 1.458.187 2.192.036l.076.016c.024.006.05.01.075.017.398.147.79.173 1.173-.039.026-.046.055-.092.085-.138.153-.236.305-.472-.053-.729l.004-.004c.181-.25.36-.493.386-.824.02-.269.07-.535.118-.801.019-.105.038-.209.055-.313.03.002.066.03.101.058.078.063.156.127.182-.097.023-.185.026-.373.028-.56.001-.08.002-.161.005-.241.027-.052.057-.103.088-.154.071-.119.143-.238.165-.365.111-.652.307-1.273.506-1.904l.004-.016c.155-.495.29-.998.427-1.502a36.96 36.96 0 01.467-1.631c.087-.275.156-.555.225-.835.119-.483.238-.967.453-1.42.233-.169.327-.407.315-.682-.012-.3.034-.594.08-.89l.035-.233c-.038-.12-.009-.224.038-.345.413-1.055.746-2.134.897-3.263.33-.44.489-1.023.412-1.507-.716.041-1.428-.012-2.14-.066-.61-.046-1.22-.092-1.83-.078a2.382 2.382 0 00-1.516-.06c-.008.003.002.062.012.12l.012.075c-.144.16-.183.355-.222.55-.014.064-.027.13-.044.193l-.298 1.158v.002c-.143.558-.287 1.116-.433 1.673-.132.496-.262.993-.392 1.49-.216.827-.433 1.654-.657 2.478l-.09.313c-.122.407-.245.823-.229 1.259l-.13.15-.13.148-.708-2.824v-.002a3409.54 3409.54 0 00-1.154-4.583c-.154-.604-.23-.643-.873-.625l-.443.013c-.804.023-1.606.046-2.41.046-.622 0-1.244-.02-1.865-.04h-.004l-.617-.019c-.365-.012-.592.094-.634.522-.058.605-.24 1.183-.422 1.76-.086.273-.171.545-.244.82l-.189.711c-.112.424-.225.847-.333 1.272-.057.228-.112.456-.167.684v.001c-.18.755-.36 1.509-.644 2.22-.146.008-.164-.072-.178-.137l-.001-.005c-.664-2.686-1.324-5.374-1.985-8.063a3.88 3.88 0 01-.07-.429c-.04-.323-.08-.644-.263-.786-.234-.178-.592-.105-.946-.033a4.193 4.193 0 01-.4.069 6.396 6.396 0 00-2.415-.01c-.64-.08-1.28-.065-1.923-.051l-.41.008c-.185.003-.241.112-.185.297.057.194.107.39.158.587.09.35.18.7.308 1.035.351.922.603 1.873.856 2.824.122.462.245.924.379 1.383.147.505.286 1.013.424 1.522.226.834.453 1.667.72 2.484.214.658.392 1.325.569 1.991.167.627.333 1.253.53 1.871.43 1.347.817 2.712 1.197 4.077z" fill="#00C1C8"/><path fill-rule="evenodd" clip-rule="evenodd" d="M63.393 53.031c.005.127.01.261.067.363l.003-.003c.016.03.02.07.025.109.01.084.02.168.14.148.377-.06.337.025.21.294l-.015.033c-.165.348.065.86.318.867.286.006.572.022.857.038H65c.368.02.735.041 1.1.041.4 0 .801-.014 1.203-.03.638-.023 1.278-.047 1.919-.01h.01c.186.008.385.018.568-.092 0-.03.003-.062.006-.094.006-.067.013-.134-.01-.192-.09-.246-.202-.485-.314-.724-.244-.52-.488-1.04-.517-1.638 0-.015-.009-.03-.017-.043a.171.171 0 01-.012-.021c-.326-.693-.585-1.41-.843-2.128v-.001a60.148 60.148 0 00-.316-.86c-.214-.57-.426-1.14-.638-1.709A397.856 397.856 0 0066 44.356c-.366-.96-.746-1.917-1.125-2.873-.178-.45-.357-.901-.534-1.352l-.254-.638v-.002c-.33-.825-.66-1.649-.928-2.497-.098-.306-.275-.486-.637-.463-.36.025-.72.02-1.082.017l-.233-.002a59.318 59.318 0 01-1.4-.033c-.827-.025-1.654-.05-2.483-.02-.371.015-.54.153-.63.463-.03.1-.056.2-.083.302v.001c-.075.28-.15.562-.268.802-.639 1.286-1.102 2.639-1.566 3.989-.12.352-.242.705-.365 1.056-.268.757-.546 1.51-.823 2.263v.001l-.001.001a124.047 124.047 0 00-1.09 3.032c-.271.8-.586 1.59-.901 2.378v.001c-.13.323-.258.646-.384.97-.082.212-.158.427-.234.642-.158.449-.316.898-.535 1.33l-.062.12c-.186.36-.398.77-.39 1.24.14 0 .276.005.408.01.28.01.547.02.807-.02 1.078-.165 2.159-.121 3.237-.078.228.01.456.018.684.026l.151.005c.855.03.866.03 1.131-.913.154-.11.166-.274.171-.443.101-.085.13-.204.16-.323.025-.104.05-.208.123-.29.121-.08.132-.202.142-.322.002-.03.005-.059.009-.088.085-.085.147-.18.13-.31.144.01.29.026.434.042.443.049.886.098 1.326-.062-.049.33.12.31.29.292a.66.66 0 01.163-.006c.073.003.145.01.218.018.21.022.42.043.629-.044.165-.09.341-.087.517-.084.135.003.27.005.4-.034.315.162.645.18.99.112a2.176 2.176 0 011.138.088c.131.047.137.203.142.371zM60.54 44.66c.005.593.032 1.162.427 1.672.183.235.227.577.248.925h-2.606c.443-1.02.771-2.044 1.104-3.083l.116-.363c.117.13.15.282.183.426.033.15.064.293.186.397l.342.026z" fill="#00C1C8"/><path d="M118.777 52.47c.019-.433.039-.865.039-1.298h-.006l.001-.016v-.018l.002-.052c.005-.14.011-.283-.112-.395l.021-.153.016-.102c.025-.157.049-.313.055-.473a38.51 38.51 0 00-.017-2.15c-.02-.777-.04-1.554-.01-2.331a6.99 6.99 0 00-.031-.816 11.756 11.756 0 01-.031-.49c-.015-.532.018-1.063.051-1.595.03-.498.061-.998.052-1.498a176.2 176.2 0 01-.002-4.301c.002-.33-.071-.486-.449-.48-1.592.017-3.186.014-4.778 0-.372-.007-.537.09-.519.492.028.572.027 1.147.026 1.722v.265c.001.384 0 .768-.001 1.153-.003.768-.006 1.536.01 2.305.006.345-.103.507-.442.519l-.237.012a6.647 6.647 0 01-.424.017h-4c0-.315-.002-.629-.003-.943a84.244 84.244 0 01.003-1.881c.015-1.064.041-2.129.085-3.193.015-.35-.097-.48-.457-.469-.91.03-1.823.04-2.734.05l-.35.004c-.612.005-1.221.011-1.833.002-.256-.003-.451.045-.407.354.057.393.029.784.001 1.174a7.088 7.088 0 00-.024.91c.041.684.056 1.371.041 2.055a61.71 61.71 0 00.026 4.104c-.006.73-.001 1.461.003 2.192v.002c.008 1.279.016 2.558-.035 3.838-.009.22.024.439.18.616.003.091.006.183.006.274-.106.083-.118.206-.118.324-.006.867-.006 1.73-.006 2.598.086.177.243.175.398.174h3.853c.171 0 .341 0 .442-.174.167-.14.338-.086.511-.032.158.048.318.098.477.002.108-1.632.068-3.272.028-4.912l-.004-.182.014-.298c.012-.235.025-.47.027-.704.003-.198.094-.304.28-.345a797.719 797.719 0 012.783.02c.305.12.62.12.935.119.132 0 .265 0 .397.008l.849.044c-.007.104-.011.208-.015.313-.014.374-.028.75-.185 1.096-.11.243-.011.431.088.617.073.138.146.274.133.43a.749.749 0 01-.154.118c-.121.079-.242.157-.232.354.009.194.013.389.016.584.004.234.008.468.022.701.002.044.067.084.132.124.03.019.06.037.083.056-.017.06-.04.12-.063.18-.092.238-.183.478.043.725l.002.097c.003.064.006.126-.002.189-.089.678.012.91.757.758a1.72 1.72 0 01.396-.02h.001a9.316 9.316 0 00.172.002c.31.156.614.12.914-.03.037.012.074.027.11.042.152.062.304.123.465-.012.256-.001.508-.038.76-.074.402-.058.806-.116 1.23-.032.572.112.719-.068.708-.693-.012-.525.012-1.05.037-1.573z" fill="#00C1C8"/><path fill-rule="evenodd" clip-rule="evenodd" d="M122.086 32.761c.429-.016.861-.032 1.291.006l.006.005c.433.039.74-.244.569-.604-.129-.268-.113-.523-.098-.775.009-.142.018-.283.001-.425-.12-1.009-.079-2.02-.039-3.03.012-.316.025-.631.033-.947.001-.167.011-.336.02-.504.03-.53.06-1.058-.162-1.568.013-.061.032-.123.049-.184.038-.128.076-.258.072-.385a44.962 44.962 0 01-.012-1.422v-.001c0-.421.001-.843-.009-1.263-.017-.704.002-1.417.021-2.13.009-.356.019-.711.024-1.066.017-1.223.032-2.447-.018-3.67-.018-.416-.195-.501-.519-.501-.207.002-.414.01-.621.018-.183.007-.366.014-.549.017-.46.006-.92.01-1.381.014h-.001c-.691.006-1.381.012-2.071.025-.539.011-.545.023-.554.521l-.006.334v.006a46.708 46.708 0 00-.011 1.715c.014.857.034 1.713.053 2.569.015.68.031 1.361.044 2.042 0 .048.003.097.005.145.01.195.02.393-.091.574l-.168.003a6.275 6.275 0 01-.168.003c-.694-.878-1.334-1.797-1.974-2.716l-.002-.003-.482-.692-.085-.12c-.779-1.11-1.559-2.22-2.424-3.267.003-.13-.042-.227-.171-.271l-.006-.01c.009-.09-.036-.144-.124-.164-.073-.076-.129-.167-.186-.257-.139-.223-.277-.443-.657-.439-.639.007-1.278.002-1.917-.004a64.494 64.494 0 00-2.983.022c-.245.009-.368.082-.357.333.01.2.005.4 0 .6-.01.36-.019.72.056 1.077v.148c-.084 1.051-.041 2.103.001 3.154.026.635.052 1.27.05 1.905l-.003.534v.001a99.686 99.686 0 00.029 3.748 39 39 0 01-.022 2.342c-.008.27-.016.538-.022.807a81.738 81.738 0 00-.005 2.757l.005.55c.006.546.012.549.592.534.108-.003.216-.014.323-.024.16-.015.32-.03.479-.023 1.097.053 2.191.094 3.287.074l.185-.011h.002c.198-.012.398-.024.598-.03.174-.007.286-.092.274-.26-.015-.21.006-.419.026-.63.034-.335.067-.671-.044-1.006v-1.159c.074-.15.041-.298-.021-.442.002-.095.019-.19.035-.286.035-.202.07-.405-.035-.607.138-.21.097-.422.057-.634a1.38 1.38 0 01-.036-.36c.145-.27.127-.555.11-.84a3.402 3.402 0 01-.01-.363c.019-.418.024-.838.03-1.258.003-.187.005-.374.009-.56.132.147.228.318.32.484.192.344.373.668.85.73 0 .088.053.133.13.162a1.42 1.42 0 00-.012.112c-.357.186-.357.21.009.484.36.698.872 1.273 1.474 1.777.121.164.193.355.265.547.108.285.216.57.484.762.291.663.747 1.204 1.271 1.693l.041.06c.166.233.331.468.589.62l.03.034.039.046.037.042.023.026.01.012c.024.072.031.157.038.241.019.235.038.472.431.454.401.03.801.024 1.203.02.419-.006.838-.011 1.261.022.4.031.806.016 1.215 0zm-4.917-1.577h-.001.003v.002l-.002-.002z" fill="#00C1C8"/><path d="M95.217 36.434c-.41-.047-.823-.01-1.236.027-.602.053-1.206.107-1.803-.098-.061-.02-.125 0-.192.022-.075.024-.153.05-.233.017-.236-.412-.468-.223-.701-.032l-.001.001-.04.034a33.44 33.44 0 00-.318.01h-.001c-.212.008-.425.016-.637.016l-.95-.001h-.191c-1.519-.002-3.04-.003-4.558-.02-.362-.002-.474.118-.463.463.02.622.021 1.242.023 1.864v.002l.001.413c.003.71.006 1.421 0 2.132-.003.324.097.471.472.457a65.1 65.1 0 012.5-.027h.5c.222-.001.443 0 .663.003.22.002.44.005.659.003.31-.003.457.12.412.442a.575.575 0 00.005.16.76.76 0 01.007.132c-.087 1.393-.072 2.788-.057 4.182.008.78.016 1.56.007 2.34-.027 1.942-.047 3.888.103 5.863.118-.01.238-.003.358.005.193.012.388.024.583-.038h.74c.931.068 1.86.05 2.791 0h.301c.06.005.12.013.18.02.209.026.43.054.702-.028v-.417c.002-.287.004-.58 0-.875-.005-.351-.019-.704-.032-1.057-.03-.764-.058-1.53.002-2.286.056-.698.038-1.393.02-2.089a30.823 30.823 0 01-.014-1.34c-.003-.102-.003-.208-.003-.31v-.002l.025-.716.008-.236.017-.498c-.003-.198-.009-.395-.015-.593.03-.036.062-.07.094-.106l.045-.05c.157-.122.152-.287.146-.45a2.654 2.654 0 01-.002-.09c.003-.211.003-.422.002-.633 0-.253 0-.506.004-.758.01-.495.015-.495.584-.58h.003c.157.02.32-.017.483-.054.315-.07.63-.141.909.195.026.03.147.005.212-.021.465-.2.684.1.834.445.165-.05.21-.144.224-.239.068-.41.321-.442.646-.321.03.011.059.034.086.057.03.025.061.05.097.061.524.15.834-.086.834-.643 0-.154-.018-.308-.035-.462a6.988 6.988 0 01-.021-.192c.064-.371.007-.735-.05-1.1-.053-.34-.106-.68-.062-1.029a3.626 3.626 0 00-.002-.676 3.937 3.937 0 01-.007-.627l.009-.085c.051-.51.051-.51-.475-.572a19.348 19.348 0 00-.58-.06l-3.612.045zm-9.616-17.647c-.166.028-.24-.08-.3-.2-.04-.08.002-.208.088-.284a.245.245 0 01.148-.066c.098-.006.195-.006.29-.028.056-.013.065.013.06.062-.012.111-.018.223-.03.334-.015.135-.078.179-.256.183v-.001zm5.442 16.347c-.039.157-.04.332-.098.498-.053.154-.19.18-.307.1a.351.351 0 01-.132-.16c-.029-.072-.02-.142.041-.199.14-.13.307-.22.458-.334.028-.021.036-.005.038.02v.075zm.721.763c-.048-.005-.096-.028-.117-.101a11.09 11.09 0 00-.148-.476c-.032-.1.055-.101.104-.127.052-.026.076.015.096.061.066.161.137.32.204.48.036.087-.025.167-.139.163zm-6.052-4.872c.092.015.163.074.238.128.019.014.006.035-.013.05-.027.022-.05.05-.076.073-.14.133-.192.129-.32-.016-.036-.039-.044-.075-.007-.113.05-.053.082-.134.18-.122h-.002zm-1.28-3.315c-.06 0-.205-.141-.196-.19.015-.091.201-.168.283-.113.064.044.17.088.166.152-.003.06-.118.085-.183.124-.022.012-.044.032-.07.027z" fill="#00C1C8"/><path fill-rule="evenodd" clip-rule="evenodd" d="M97.67 34.426c-.034-.026-.07-.053-.091-.098h.003l.23-.09.38-.149c.125-.048.126-.048.125.085-.003.539-.008 1.077-.013 1.616-.009.987-.018 1.975-.017 2.962v.43c.001 1.175.002 2.352.044 3.527l.002.072c.005.19.01.38.146.54l.012.014c.016.023.033.045.055.013l.032-.042c.057-.078.115-.157.132-.255.015-.084.026-.17.036-.255.01-.081.021-.162.034-.243.06-.354.08-.712.1-1.07l.019-.328c.017-.277.034-.554.048-.83.014-.294.034-.587.054-.88.02-.313.041-.626.056-.939.007-.162.017-.324.026-.486.01-.147.018-.294.025-.441.018-.387.043-.773.067-1.16.016-.258.033-.516.047-.774a.382.382 0 01.186-.33c.055-.032.079-.077.076-.145a.555.555 0 00-.11-.309c-.072-.098-.054-.172.053-.22a.121.121 0 00.023-.014l.007-.005a.187.187 0 01.05-.02c.033-.012.064-.022.065-.05 0-.038-.042-.053-.082-.067l-.032-.013c-.1-.044-.144-.11-.137-.23.014-.236.012-.472.007-.708a.259.259 0 01.134-.24l.3-.184.392-.24.006-.003c.16-.1.161-.1.293.043.105.116.169.122.278.01l.049-.05c.18-.183.359-.366.582-.506.191-.12.245-.313.117-.527-.022-.035-.024-.07.002-.105l.488-.66c.026-.037.05-.046.094-.017.086.058.176.114.269.16a.192.192 0 00.28-.17.82.82 0 00-.03-.321c-.046-.129-.042-.135.027-.244l.007-.011.032-.051c.067-.107.129-.216.192-.325.117-.201.233-.403.375-.588.169-.22.318-.443.401-.712.074-.242.201-.452.493-.484.045-.005.047-.038.042-.072-.011-.1-.023-.198-.036-.298-.009-.07-.014-.105.002-.121.015-.017.052-.014.127-.01l.038.007c.035.007.071.014.086-.012.016-.027-.01-.05-.035-.075-.009-.009-.019-.018-.026-.028a.35.35 0 01-.02-.029c-.126-.143-.097-.246.074-.328.056-.026.083-.041.105-.036.022.006.04.031.076.084.019.028.039.06.084.05.041-.007.055-.038.061-.067.022-.111.041-.222.061-.333l.021-.117c.006-.037-.008-.064-.043-.076-.036-.012-.058.005-.08.034-.037.052-.077.102-.116.152l-.081.104-.005.006c-.011.015-.02.027-.043.018-.026-.012-.018-.023-.009-.035a.035.035 0 00.009-.014l.236-.799c.072-.244.156-.482.287-.702a1.64 1.64 0 01.299-.385c.063-.057.077-.172.029-.233-.039-.049-.073-.023-.104 0a.12.12 0 01-.033.02c-.053.021-.078.033-.091.025-.012-.008-.011-.036-.011-.093v-1.039c0-.175 0-.178.171-.218.051-.013.05-.032.027-.065l-.019-.025a5.27 5.27 0 00-.163-.221c-.043-.055-.042-.096.001-.155l.077-.098c.072-.09.144-.18.191-.287a.403.403 0 00-.263-.567c-.051-.015-.06-.05-.069-.085l-.001-.005a3.638 3.638 0 01-.071-.327 12.145 12.145 0 00-.158-.82 3.452 3.452 0 00-.315-.833c-.038-.074-.078-.146-.117-.22a5.143 5.143 0 01-.303-.625 3.159 3.159 0 00-.369-.722 2.958 2.958 0 00-.526-.538.316.316 0 01-.095-.364.493.493 0 00.015-.054c.005-.033.012-.08-.025-.092-.027-.01-.055.029-.07.056h-.001c-.058.101-.059.103-.148.033a258.78 258.78 0 00-.9-.705c-.017-.013-.035-.026-.033-.048.003-.024.025-.03.048-.037l.012-.004c.097-.031.103-.054.062-.154a.81.81 0 01-.08-.322c.001-.178-.002-.178-.183-.146-.069.013-.104.019-.114.038-.011.02.003.052.029.12.041.1.076.2.112.302v.002c.007.017.015.041-.003.056-.014.011-.031.002-.046-.005l-.004-.002a.388.388 0 01-.208-.247 1.97 1.97 0 01-.05-.343l-.006-.068c-.006-.065-.054-.079-.097-.091l-.005-.002c-.045-.013-.055.022-.064.054l-.005.016c-.013.04-.029.08-.045.123l-.028.074c-.014-.027-.026-.054-.038-.08-.032-.066-.061-.127-.103-.18a.31.31 0 00-.354-.1c-.121.05-.168.038-.253-.07.116-.011.23-.026.338-.062a.154.154 0 01.049-.003c.029.001.058.002.06-.025.005-.044-.038-.053-.076-.06l-.033-.008c-.35-.117-.701-.19-1.047.016-.037.022-.062.009-.069-.035a2.614 2.614 0 01-.01-.064c-.007-.051-.014-.103-.029-.152a.934.934 0 01-.026-.14.59.59 0 00-.053-.205c-.03.006-.04.027-.052.05a10.803 10.803 0 01-.133.232l-.004.006c-.008.016-.019.035-.039.031-.02-.005-.018-.02-.015-.037a1.046 1.046 0 01.021-.236c.012-.057-.028-.096-.067-.11-.025-.008-.039.031-.05.063l-.004.012a.396.396 0 01-.444.266.77.77 0 01-.114-.031.828.828 0 00-.105-.03 7.95 7.95 0 00-.256-.043 4.456 4.456 0 01-.444-.085.731.731 0 01-.408-.253c-.062-.08-.06-.085.035-.103a.103.103 0 00.03-.012.097.097 0 01.026-.01l.037-.011c.032-.01.064-.02.103 0 .105.052.214.099.322.146l.085.037.006.003c.035.015.079.035.098-.015.051-.13-.045-.317-.179-.368l-.086-.028a.55.55 0 01-.182-.078c-.045-.034-.08-.026-.114-.007a4.098 4.098 0 01-.25.123c-.118.055-.117.058-.057.175l.002.004c.002.004.005.008.005.012.002.007.004.018 0 .022-.006.005-.022.008-.024.005a.201.201 0 00-.044-.038c-.034-.024-.067-.048-.063-.106.005-.067.004-.134.003-.201v-.135c.001-.06-.025-.074-.076-.06-.071.02-.144.032-.217.043-.054.009-.109.018-.163.03-.078.018-.132.017-.17-.068a.337.337 0 00-.057-.084.521.521 0 01-.052-.074c-.084-.165-.226-.153-.372-.13a.047.047 0 00-.02.006.117.117 0 01-.014.005l-.058.014c-.084.02-.167.042-.255.035-.12-.01-.239-.02-.358-.033a10 10 0 00-.603-.047 3.298 3.298 0 00-.89.062.792.792 0 01-.475-.017c-.052-.018-.108-.027-.163.005-.157.088-.33.112-.508.116h-.08a.628.628 0 00-.218.02c-.19.067-.325.023-.428-.144-.028-.046-.053-.036-.077.005a1.896 1.896 0 01-.042.065.79.79 0 00-.08.137c-.029.064-.072.06-.113.035-.17-.11-.294-.042-.387.11-.063.105-.143.193-.223.282l-.026.028c-.018.02-.038.035-.066.013-.03-.024-.017-.044 0-.068a.304.304 0 01.034-.037c.024-.024.047-.048.054-.084a1.28 1.28 0 00-.144-.031 1.752 1.752 0 01-.092-.018 2.212 2.212 0 00-.515-.061.428.428 0 00-.257.075.448.448 0 00-.17.261c-.012.05.023.072.058.096.02.014.041.027.053.047.004.007.01.013.016.02a.142.142 0 01.006.006c.044.048.04.097-.005.14a1.045 1.045 0 01-.117.093l-.002.001c-.326.225-.653.45-1.065.491-.068.007-.12.05-.149.12a.876.876 0 01-.213.297c-.13.121-.278.216-.425.311a5.15 5.15 0 00-.251.168c-.031.023-.07.022-.11.017a.645.645 0 01-.248-.103 1.643 1.643 0 00-.088-.05c-.053-.028-.094-.015-.129.016-.047.042-.095.088-.106.155-.002.014.006.026.02.036.032.023.063.048.093.073l.066.052c.054.042.08.063.083.086.002.024-.022.051-.07.106-.077.087-.153.154-.282.148-.168-.008-.212.042-.192.21a.72.72 0 01-.12.508c-.026.039-.047.08-.069.12l-.042.078-.047.081c-.124.215-.248.429-.44.596a.763.763 0 00-.201.273.33.33 0 00-.021.085.396.396 0 01-.015.068c-.04.118-.123.147-.218.072a1.363 1.363 0 00-.027-.02c-.025-.02-.051-.04-.074-.063-.042-.042-.078-.02-.11.002a.357.357 0 01-.015.01c-.03.017-.017.036-.004.054a.119.119 0 01.011.02c.011.025.02.053.03.08a.446.446 0 00.075.16c.056.065.036.116.016.17a.243.243 0 00-.013.038.153.153 0 00-.005.017l-.002.009-.043.151c-.065.233-.131.466-.184.703-.012.053-.047.063-.085.04-.04-.025-.084-.04-.128-.056-.045-.016-.09-.032-.133-.058.022.06.026.121.031.183a1.117 1.117 0 00.027.19 1.417 1.417 0 01.035.294c.001.016.003.032-.019.04-.026.008-.042-.004-.058-.026a3.605 3.605 0 00-.145-.185c-.063-.076-.091-.073-.184.012-.057.052-.06.11-.005.166.037.038.076.074.118.106.161.122.16.127-.007.244l-.053.037c-.121.084-.243.168-.33.294-.087.128-.08.163.05.252.116.078.246.126.387.171l-.02.017a.138.138 0 01-.029.023l-.105.065a4.974 4.974 0 01-.277.164c-.118.064-.224.125-.162.286a.06.06 0 01.002.027v.009c.001.054.026.077.083.075.075-.003.15-.002.225-.002a8.739 8.739 0 00.11 0c.013 0 .025 0 .031.013.007.015-.003.025-.011.034a9.674 9.674 0 01-.161.18c-.037.038-.071.037-.112 0a3.942 3.942 0 00-.227-.181c-.07-.053-.146-.056-.225-.024l-.007.003c-.017.007-.036.014-.03.038a.581.581 0 01.006.048c.006.047.011.094.051.131.099.09.204.173.309.256l.096.075c.025.02.058.03.081-.01l.036-.06a4.143 4.143 0 01.221-.34l.054-.078c.004.002.009.002.013.003l.013.003v.332c0 .084 0 .126-.02.143-.021.016-.063.007-.148-.012a.351.351 0 01-.017-.004c-.042-.01-.094-.024-.089.063l.005.046c.007.05.014.104-.016.134-.034.035-.08.019-.127.003a.557.557 0 00-.055-.017h-.004c-.027-.005-.064-.013-.053.037l.008.042c.014.072.027.143.087.197a28.837 28.837 0 01.352.328c.014.013.03.028.044.022.08-.035.077.011.075.055v.02l-.002.265c-.001.177-.003.354.002.531.003.139-.017.256-.153.325a.1.1 0 00-.028.026l-.004.004c-.067.076-.051.134.051.138.091.004.118.042.125.12a.87.87 0 00.018.112l.005.024c.018.09.035.174.144.227.2.097.195.371.007.486a.409.409 0 00-.175.178c-.026.06-.001.114.028.159.02.032.063.054.109.041l.045-.012c.036-.01.072-.019.107-.03.052-.019.101-.019.139.022.04.043.023.098-.002.14-.035.06-.079.115-.126.167-.047.052-.051.08.018.12l.005.003c.084.05.168.1.218.2l.06.121c.065.129.13.258.19.389.081.183.137.374.16.573.028.221.038.444.048.667.004.107.01.215.016.322.004.07.036.123.074.175.039.054.11.05.168-.003.05-.046.095-.091.026-.16-.06-.06-.067-.136-.073-.212-.003-.03-.005-.06-.01-.087-.005-.023.012-.032.032-.032h.004c.09.005.175.01.236.098.184.266.346.547.506.828a.269.269 0 01.015.258c-.03.066-.045.139-.06.21l-.014.06c-.01.044-.011.096.032.12.086.047.157.11.229.174.037.033.074.067.114.098l.03.025c.058.047.116.094.196.097a.659.659 0 01.476.232c.05.053.096.109.142.164.087.104.173.207.278.293a.279.279 0 01-.12.061.374.374 0 00-.1.043c.204.045.224.07.236.276v.01c0 .018.001.035.004.052.012.071.045.11.125.092a.23.23 0 00.052-.018c.043-.018.088-.037.121 0 .03.033.026.085.021.136l-.003.052c0 .174.05.32.213.404.127-.168.093-.348.024-.526.033-.013.05.001.067.015l.012.01a10.81 10.81 0 002.293 1.198c.513.19 1.037.332 1.573.436.078.015.1.046.104.12a10.43 10.43 0 00.054.555l.026.219c.017.14.035.281.043.422.01.164.08.29.187.404l.003.004c.017.017.03.03.049 0l.027-.04c.043-.061.087-.124.09-.2a2.936 2.936 0 00-.012-.46 7.202 7.202 0 01-.048-.689c-.001-.178.083-.238.256-.188a.868.868 0 00.252.043c.251-.004.495.041.739.097l.065.015a.768.768 0 00.337.027c.215-.024.43-.049.644-.079.063-.009.08.01.082.066.003.064.009.129.015.193.005.06.01.118.013.176.009.168.023.334.038.501.015.177.03.353.04.53.008.169.021.336.039.503.03.284.06.568.078.852a.71.71 0 00.206.447c.018.02.036.04.066.013.025-.023.052-.045.079-.067a.785.785 0 00.136-.128c.113-.146.127-.32.13-.493.014-.79.024-1.582.034-2.373 0-.074.017-.142.048-.22.075.12.129.239.14.367.014.161.024.324.029.485.02.67.045 1.339.073 2.008l.023.587c.02.488.038.976.065 1.464.033.619.056 1.238.073 1.857.004.17.067.304.168.43l.003.002c.013.017.032.042.054.02l.046-.044c.08-.077.16-.154.175-.272l.019-.176.012-.113c.03-.275.056-.55.067-.827.019-.451.034-.903.031-1.354-.002-.435.007-.869.016-1.303.007-.366.014-.731.016-1.097 0-.46.008-.921.016-1.381a.777.777 0 01.05-.294c.026-.064.047-.131.067-.199l.026-.082c.016-.047.014-.087-.03-.125a.692.692 0 00-.034-.029zm.66-12.34v-.001zm0 0v.001zm0 0a.143.143 0 01-.017.014c-.022.018-.045.036.003.07.024.018.01.058-.003.074a.247.247 0 00-.032.075c-.016.053-.032.107-.108.117-.002 0-.007.012-.005.014.046.075-.003.104-.047.131a.183.183 0 00-.044.033c-.031.037-.066.072-.101.107a2.168 2.168 0 00-.08.083.233.233 0 01-.144.07c-.072.012-.136.045-.17.111-.024.048-.066.063-.1.048-.05-.021-.102-.032-.154-.043a.938.938 0 01-.126-.032 1.172 1.172 0 01-.322-.199l-.076-.058c-.169-.127-.26-.299-.336-.48a1.03 1.03 0 01-.045-.144 1.02 1.02 0 00-.042-.138c-.1-.237-.11-.482-.11-.728 0-.176.016-.353.069-.526l.03-.103c.034-.119.068-.238.119-.35l.004-.008c.062-.14.127-.285.233-.393l.036-.037c.127-.13.257-.265.449-.312a1.33 1.33 0 01.367-.03c.21.008.37.119.51.252l.036.032c.062.056.132.117.135.218 0 .02.014.025.03.032.015.006.032.013.041.032a2.1 2.1 0 01.189.548.57.57 0 00.013.056c.01.038.021.076.014.11a.312.312 0 00.02.214c.021.047.012.095.002.143a.607.607 0 00-.009.058c-.003-.035-.023-.064-.048-.1l-.024-.034-.015.127v.001l-.016.141a2.274 2.274 0 00-.009.17 1.34 1.34 0 01-.028.285.8.8 0 00-.034.27c.001.013 0 .027-.02.031-.04.007-.04.008-.036.046v.003zm.229-.939zm-9.265 5.701v-.002h.002v.002h-.002zm-.024-.002c.008.003.017.007.024.002a.268.268 0 00.131.175c.012.01.024.018.036.003.007-.008.004-.03-.002-.04-.013-.024-.028-.047-.043-.07l-.017-.026c.01-.015.026-.016.035-.002.046.066.109.11.173.155a.954.954 0 01.128.102c.171.17.335.348.5.525l.108.117.06.064c.107.117.214.234.337.336.284.236.585.448.89.655.21.145.428.283.657.396.213.106.442.182.672.25.14.04.28.072.422.104.064.014.127.027.19.042l.039.01c.085.02.174.042.265.034.115-.01.229.007.342.025.044.007.088.014.131.019a.764.764 0 00.159-.004.673.673 0 01.142-.005c.29.026.582.016.87-.01.258-.022.518-.049.774-.113a9.15 9.15 0 00.767-.23c.256-.09.497-.211.735-.338.237-.126.456-.28.664-.447a6.877 6.877 0 001.588-1.761.644.644 0 01.164-.166l.008-.006c.035-.028.068-.054.123-.011.055.044.07.076.055.151a1.98 1.98 0 01-.315.754c-.259.366-.537.718-.839 1.052-.218.242-.45.466-.706.663a4.608 4.608 0 01-.737.472c-.128.07-.257.14-.391.195-.056.022-.11.046-.166.07-.14.06-.28.12-.428.16a2.8 2.8 0 00-.257.09c-.09.035-.18.07-.272.094a3.94 3.94 0 01-.654.125c-.069.007-.137.017-.206.026a1.866 1.866 0 01-.463.028.194.194 0 00-.091.017.213.213 0 01-.106.016 3.142 3.142 0 00-.475-.03 4.52 4.52 0 01-.335-.012c-.135-.011-.27-.027-.403-.043l-.044-.006a3.44 3.44 0 01-.882-.234l-.312-.123c-.105-.04-.209-.082-.313-.123a7.4 7.4 0 01-.923-.458 5.644 5.644 0 01-.99-.712.669.669 0 01-.143-.215 3.76 3.76 0 00-.572-.87 1.523 1.523 0 01-.2-.322l-.064-.119a.858.858 0 01-.133-.376l-.002-.026c-.003-.043-.007-.09.023-.105.037-.019.064.017.087.05l.02.025.002.002c.046.052.082.094.133.005.008-.015.019-.01.03-.006zm2.614-6.63a.332.332 0 00-.12-.015l-.054-.001a1.946 1.946 0 00-.688.072.374.374 0 00-.141.093 1.576 1.576 0 01-.024.021l-.01.01c-.058.051-.114.101-.205.072-.027-.009-.064.02-.086.05a.076.076 0 00-.003.005l-.003.005c-.01.016-.021.034-.05.023 0-.016.01-.026.02-.037.012-.012.023-.024.022-.042-.039-.016-.084.01-.095.028-.044.08-.115.086-.186.091a.395.395 0 00-.096.015c-.017.006-.02-.008-.023-.023-.003-.015-.007-.033-.028-.034-.008 0-.008-.016 0-.02a.178.178 0 00.011-.007c.014-.01.03-.02.044-.006.012.011.028.012.043.012.02 0 .041.001.055.03.025-.204.138-.311.308-.393a.945.945 0 00.117-.072c.029-.019.058-.038.087-.055.008-.005.017-.021.015-.029-.026-.098.038-.1.102-.09.032.004.055-.008.078-.02a.197.197 0 01.035-.017c.038-.012.075-.026.112-.04.08-.03.159-.061.25-.07a3.04 3.04 0 01.522-.015c.164.011.32.062.47.13l.104.046c.082.035.163.07.24.114.05.027.101.064.148.101.027.021.057.04.087.058.032.02.064.04.093.063a1.971 1.971 0 01.484.537c.036.053.071.106.109.157.04.054.066.114.091.174.023.053.046.106.079.155.025.036-.013.05-.031.057h-.001a.826.826 0 01-.284.044c-.047 0-.08-.035-.112-.068l-.03-.03a1.213 1.213 0 00-.401-.259l-.156-.057a5.945 5.945 0 00-.248-.09c-.086-.029-.197-.063-.301-.018-.036.015-.071.009-.107.002a.227.227 0 00-.103-.002c-.138.038-.28.062-.421.085l-.103.018c-.021.004-.034.015-.047.026l-.012.01a.839.839 0 01-.181.096c-.055.024-.11.048-.16.081a.223.223 0 01-.066.025.202.202 0 00-.103.05.556.556 0 01-.09.072.399.399 0 00-.133.127c-.017.03-.039.06-.06.09a.847.847 0 00-.054.079c-.009.014-.019.028-.033.022-.063-.029-.076.01-.087.047l-.011.028-.028.06c-.037.08-.075.162-.163.208-.01.005-.023.011-.028.02-.004.006-.005.014-.007.021-.005.021-.01.042-.045.027-.044-.02-.029-.06-.017-.089v-.003c.169-.468.367-.919.752-1.256.256-.225.545-.392.888-.448.029-.005.058-.01.069-.052zm-3.921 5.97a.258.258 0 00-.086.18l-.001-.002c-.007.055.02.09.065.112.046.023.08.004.119-.026.014-.011.026-.027.038-.042.037-.046.074-.092.153-.036.01.008.013-.001.017-.011a.037.037 0 01.007-.014c.024-.02.035-.047.047-.074.013-.034.028-.068.065-.088.062-.035.125-.065.19-.095l.05-.024a.916.916 0 01.224-.063.72.72 0 00.28-.094.317.317 0 01.114-.028.55.55 0 01.091-.006c.092-.003.184-.006.249-.096.002-.003.01-.005.017-.006.012-.003.024-.005.013-.019-.008-.01-.01-.024-.013-.037-.004-.024-.008-.048-.044-.054-.048-.009-.096-.02-.144-.031a1.707 1.707 0 00-.236-.044 1.421 1.421 0 00-.39.036l-.117.021c-.199.031-.374.092-.513.243a.198.198 0 01-.07.041h-.001c-.002.001-.005-.002-.008-.006-.006-.007-.014-.017-.023-.004-.012.015-.003.032.011.047l.008.008c.023.021.046.043.013.078l-.041.046a.993.993 0 01-.084.087zm12.458-.599a.915.915 0 01.256.032 1.94 1.94 0 00.183.033c.087.012.174.023.254.062l.048.022c.069.031.14.063.188.129.008.011.02.025.032.028.093.018.105.056.054.137-.017.027.029.065.059.09l.009.007a.536.536 0 01.141.17c.034.063.025.115-.029.163-.057.052-.106.025-.154-.01a.233.233 0 01-.039-.039l-.021-.024-.01-.01c-.019-.021-.038-.044-.049.016l-.033-.01c-.025-.006-.05-.013-.055-.027-.074-.196-.238-.247-.402-.298a1.79 1.79 0 01-.137-.046.509.509 0 00-.109-.026c-.062-.01-.126-.02-.182-.07-.03-.027-.094-.03-.15-.032a1.37 1.37 0 01-.04-.001.6.6 0 01-.112-.022.519.519 0 00-.12-.021c-.036-.001-.087-.097-.082-.134.004-.024.02-.025.035-.025h.003a.54.54 0 00.163-.039.792.792 0 01.113-.033c.04-.008.078-.01.113-.013a.475.475 0 00.072-.007l.001-.002z" fill="#00C1C8"/><path d="M90.432 28.258c-.016 0-.028 0-.028-.016 0-.006.008-.018.013-.018.014 0 .03.004.03.023 0 .004-.011.009-.015.012v-.001zm1.828 1.14c-.005.015-.017.013-.027.01-.005 0-.01-.005-.015-.007l.037-.018.005.015zm-1.86-.986c.003.005.012.014.013.023.001.01-.01.013-.016.008-.008-.006-.013-.015-.02-.023l.023-.007zm8.12-7.462c0 .021-.008.034-.03.032-.014-.001-.03-.01-.022-.027.005-.014.018-.033.031-.036.016-.003.016.019.021.032zm-8.12-.625l.082-.056c-.002.039-.011.068-.082.056z" fill="#00C1C8"/></svg>