<svg id="Layer_1" data-name="Layer 1" xmlns="http://www.w3.org/2000/svg" viewBox="0 0 1748.0601 489.41"><defs><style>.cls-1{fill:#fff;}</style></defs><polygon class="cls-1" points="3.99 177.33 3.99 479.22 97.19 479.22 97.19 256.11 203.88 256.11 203.88 479.22 297.09 479.22 297.09 177.33 3.99 177.33"/><path class="cls-1" d="M472.3,479.23H379.1V177.34h93.2ZM369.9,61.27c0-30.07,25.14-54.12,55.8-54.12,30.04,0,55.19,24.05,55.19,54.12,0,30.06-25.14,54.12-55.19,54.12-30.66.01-55.8-24.05-55.8-54.12"/><rect class="cls-1" x="553.7" y="5.36" width="93.2" height="473.87"/><rect class="cls-1" x="728.29" y="5.36" width="93.2" height="473.87"/><path class="cls-1" d="M996.09,479.23h-93.2V177.34h93.2ZM893.69,61.27c0-30.07,25.14-54.12,55.8-54.12,30.05,0,55.19,24.05,55.19,54.12,0,30.06-25.14,54.12-55.19,54.12-30.66.01-55.8-24.05-55.8-54.12"/><path class="cls-1" d="M1223.42,407.66c44.76,0,78.48-34.28,78.48-79.38s-33.72-79.38-78.48-79.38c-45.38,0-79.1,34.28-79.1,79.38s33.72,79.38,79.1,79.38m0-237.54c89.52,0,165.56,67.36,165.56,158.16s-76.03,158.16-165.56,158.16c-89.52,0-166.17-67.36-166.17-158.16s76.65-158.16,166.17-158.16"/><polygon class="cls-1" points="1450.75 177.33 1450.75 479.22 1543.95 479.22 1543.95 256.11 1650.65 256.11 1650.65 479.22 1743.85 479.22 1743.85 177.33 1450.75 177.33"/></svg>